<svg width="21" height="21" viewBox="0 0 21 21" fill="none" xmlns="http://www.w3.org/2000/svg">
<g id="bell-alt-1_svgrepo.com">
<path id="Vector" d="M7.71472 18.4271H12.8576M15.4291 7.79845C15.4291 6.5254 14.8873 5.3045 13.9227 4.40431C12.9582 3.50413 11.6501 2.99841 10.2862 2.99841C8.92218 2.99841 7.61407 3.50413 6.64959 4.40431C5.68512 5.3045 5.14327 6.5254 5.14327 7.79845C5.14327 10.1009 4.56368 11.7272 3.88108 12.8441C3.21997 13.9259 2.88941 14.4668 2.9017 14.6073C2.91551 14.7651 2.94665 14.8206 3.07414 14.9148C3.18762 14.9985 3.72694 14.9985 4.80561 14.9985H15.7668C16.8454 14.9985 17.3847 14.9985 17.4982 14.9148C17.6257 14.8206 17.6569 14.7651 17.6707 14.6073C17.6829 14.4668 17.3523 13.9259 16.6913 12.8441C16.0087 11.7272 15.4291 10.1009 15.4291 7.79845Z" stroke="white" stroke-width="2" stroke-linecap="round" stroke-linejoin="round"/>
</g>
</svg>
