<svg width="30" height="30" viewBox="0 0 30 30" fill="none" xmlns="http://www.w3.org/2000/svg">
<g id="default image">
<rect width="30" height="30" rx="15" fill="#EAECF0"/>
<g id="Group 18341">
<path id="Vector" d="M20.7798 6.1661L20.9876 6.80814C20.9891 6.81266 20.989 6.81752 20.9871 6.82194C20.9852 6.82637 20.9817 6.8301 20.9771 6.83253C20.9726 6.83497 20.9672 6.83597 20.962 6.83537C20.9567 6.83478 20.9518 6.83262 20.9481 6.82925C20.8114 6.70853 20.7665 6.53368 20.6541 6.42811C20.4132 6.20255 20.1245 6.10601 19.788 6.13849C19.2092 6.19479 18.7999 6.4633 18.3256 6.69013C17.8142 6.93427 17.0447 6.92453 16.464 6.87635C15.6741 6.81067 14.921 6.6636 14.2047 6.43515C13.7391 6.28682 13.3459 6.10764 13.0253 5.89759C12.7787 5.73591 12.4199 5.46596 11.949 5.08774C11.9349 5.07655 11.9183 5.07114 11.8992 5.0715C11.8729 5.07186 11.8535 5.06248 11.8409 5.04335C11.8405 5.04275 11.8399 5.04225 11.8391 5.04189C11.8384 5.04153 11.8376 5.04131 11.8368 5.04126C11.836 5.04121 11.8352 5.04132 11.8344 5.04159C11.8337 5.04186 11.833 5.04227 11.8324 5.04281L11.8209 5.05309C11.8152 5.05815 11.8152 5.0632 11.8209 5.06825C12.2274 5.4241 12.6635 5.74872 13.1291 6.04213C13.3364 6.17278 13.5571 6.28177 13.7911 6.36911C14.9038 6.78378 16.1179 7.04308 17.3295 6.99869C17.7783 6.98191 18.13 6.89854 18.5448 6.69337C18.9335 6.5012 19.4 6.23052 19.8196 6.23377C20.2836 6.23756 20.7215 6.48225 20.7999 6.87797C20.8788 7.27857 20.9254 7.77065 20.9396 8.35423C20.9456 8.59296 20.9803 8.85984 20.9359 9.09533C20.9246 9.1574 20.9159 9.21984 20.9098 9.28264C20.9029 9.35806 20.89 9.45081 20.8709 9.56089C20.8418 9.73195 20.8452 9.89851 20.8813 10.0606C20.8855 10.0792 20.8967 10.0959 20.913 10.108C20.9292 10.1201 20.9495 10.1269 20.9705 10.1271C21.0135 10.1282 21.0321 10.1457 21.0264 10.1796C21.0262 10.1807 21.0263 10.1817 21.0266 10.1827C21.027 10.1837 21.0275 10.1846 21.0283 10.1853C21.029 10.1861 21.0299 10.1867 21.031 10.1871C21.032 10.1876 21.0332 10.1878 21.0343 10.1878C21.04 10.1878 21.0457 10.1878 21.0513 10.1878C21.0602 10.1878 21.0637 10.1838 21.0617 10.1759C21.0459 10.121 21.0525 10.0809 21.0817 10.0557C21.0635 10.4819 21.0463 10.907 21.0301 11.3311C21.0248 11.4646 20.9683 11.6395 20.8606 11.8557C20.7732 11.5103 20.6134 11.262 20.3814 11.1108C20.4632 10.9383 20.5207 10.758 20.5539 10.57C20.71 9.68215 20.591 8.81004 20.2618 7.96554C20.1565 7.69487 20.0701 7.5155 20.0024 7.42744C19.8729 7.2589 19.6886 7.13818 19.4498 7.06528C19.3307 7.02883 19.1831 7.03208 19.007 7.07502C18.4738 7.20549 17.9454 7.38359 17.4091 7.49457C17.2508 7.52741 17.0918 7.55791 16.9323 7.58606C15.8974 7.76867 14.8775 7.74972 13.8725 7.52921C12.2643 7.17626 10.8291 6.26246 9.81665 5.09423C10.6823 4.71385 11.7138 4.3645 12.9111 4.04619C13.6885 3.83975 14.3968 3.74123 15.0362 3.75061C15.6326 3.75963 16.3414 3.84896 17.1625 4.01858C18.4246 4.27951 19.5706 4.78242 20.4355 5.67943C20.6088 5.8588 20.7236 6.02102 20.7798 6.1661ZM18.6359 4.86795C17.8719 5.03974 17.1242 5.09333 16.393 5.02873C15.4763 4.94753 14.5685 4.73189 13.6696 4.38182C13.6656 4.3802 13.6611 4.37951 13.6567 4.37981C13.6523 4.38011 13.648 4.38139 13.6442 4.38354C13.6405 4.38569 13.6374 4.38864 13.6353 4.39212C13.6331 4.39561 13.632 4.39951 13.632 4.40348V4.41918C13.632 4.4216 13.6328 4.42397 13.6343 4.42599C13.6359 4.42801 13.638 4.42959 13.6405 4.43054C15.2099 5.09694 16.953 5.34704 18.6481 4.91613C18.6647 4.91216 18.6687 4.90332 18.6602 4.88961L18.6505 4.87337C18.6472 4.86831 18.6424 4.86651 18.6359 4.86795ZM19.57 5.55871C18.8224 5.76659 18.1306 5.91546 17.3447 5.95822C15.8464 6.03997 14.5272 5.70596 13.2214 5.07366C13.1328 5.03072 13.0206 4.96106 12.885 4.8647C12.8769 4.85893 12.8696 4.85983 12.8631 4.86741L12.8528 4.87932C12.8503 4.88224 12.8486 4.88556 12.8475 4.88908C12.8465 4.8926 12.8463 4.89625 12.8469 4.89982C12.8474 4.9034 12.8488 4.90682 12.8508 4.9099C12.8529 4.91298 12.8556 4.91565 12.8588 4.91776C13.7496 5.49267 14.7388 5.8532 15.8263 5.99937C17.1115 6.17206 18.359 6.01507 19.5694 5.59769C19.5743 5.59598 19.5783 5.59268 19.5805 5.58846C19.5828 5.58424 19.5831 5.57941 19.5815 5.57495L19.5767 5.56196C19.5755 5.55907 19.5732 5.55799 19.57 5.55871Z" fill="#331203"/>
<path id="Vector_2" d="M18.636 4.8681C18.6425 4.86665 18.6473 4.86846 18.6506 4.87351L18.6603 4.88975C18.6688 4.90346 18.6647 4.91231 18.6481 4.91628C16.953 5.34719 15.21 5.09709 13.6406 4.43069C13.6381 4.42974 13.6359 4.42816 13.6344 4.42614C13.6329 4.42412 13.6321 4.42175 13.6321 4.41932V4.40362C13.6321 4.39965 13.6332 4.39575 13.6354 4.39227C13.6375 4.38879 13.6406 4.38584 13.6443 4.38369C13.6481 4.38154 13.6523 4.38025 13.6568 4.37995C13.6612 4.37965 13.6657 4.38034 13.6697 4.38197C14.5686 4.73204 15.4764 4.94767 16.3931 5.02888C17.1243 5.09348 17.872 5.03988 18.636 4.8681Z" fill="#0C0100"/>
<path id="Vector_3" d="M17.3448 5.95908C18.1307 5.91632 18.8225 5.76745 19.5701 5.55957C19.5734 5.55885 19.5756 5.55993 19.5768 5.56282L19.5817 5.57581C19.5833 5.58026 19.5829 5.5851 19.5807 5.58932C19.5784 5.59354 19.5744 5.59684 19.5695 5.59855C18.3591 6.01592 17.1116 6.17291 15.8265 6.00022C14.7389 5.85406 13.7497 5.49352 12.859 4.91861C12.8557 4.9165 12.853 4.91383 12.851 4.91076C12.8489 4.90768 12.8475 4.90426 12.847 4.90068C12.8464 4.89711 12.8466 4.89346 12.8477 4.88994C12.8487 4.88642 12.8505 4.8831 12.8529 4.88018L12.8632 4.86827C12.8697 4.86069 12.877 4.85979 12.8851 4.86556C13.0207 4.96192 13.1329 5.03158 13.2216 5.07452C14.5273 5.70682 15.8465 6.04083 17.3448 5.95908Z" fill="#0C0100"/>
<path id="Vector_4" d="M20.7799 6.16538C20.9398 6.39239 21.0477 6.63112 21.1036 6.88158C21.1053 6.88999 21.1041 6.89868 21.1001 6.90644C21.0961 6.9142 21.0894 6.92065 21.0811 6.92489L21.024 6.95466C21.0034 6.96513 20.9947 6.98083 20.9979 7.00176C21.1503 7.99946 21.1291 9.0513 21.0817 10.055C21.0526 10.0802 21.0459 10.1203 21.0617 10.1751C21.0637 10.1831 21.0602 10.187 21.0513 10.187C21.0457 10.187 21.04 10.187 21.0343 10.187C21.0332 10.1871 21.032 10.1868 21.031 10.1864C21.03 10.186 21.029 10.1854 21.0283 10.1846C21.0275 10.1838 21.027 10.1829 21.0267 10.182C21.0263 10.181 21.0263 10.1799 21.0264 10.1789C21.0321 10.145 21.0135 10.1275 20.9706 10.1264C20.9495 10.1261 20.9292 10.1194 20.913 10.1073C20.8967 10.0952 20.8856 10.0784 20.8813 10.0598C20.8452 9.89779 20.8418 9.73123 20.871 9.56017C20.89 9.45009 20.9029 9.35734 20.9098 9.28192C20.9159 9.21912 20.9246 9.15668 20.9359 9.09461C20.9803 8.85912 20.9457 8.59224 20.9396 8.3535C20.9254 7.76993 20.8789 7.27785 20.7999 6.87725C20.7216 6.48153 20.2837 6.23684 19.8196 6.23305C19.4 6.2298 18.9335 6.50047 18.5448 6.69265C18.13 6.89782 17.7784 6.98119 17.3295 6.99797C16.1179 7.04236 14.9038 6.78306 13.7911 6.36839C13.5571 6.28105 13.3364 6.17206 13.1291 6.04141C12.6635 5.748 12.2274 5.42337 11.8209 5.06753C11.8152 5.06248 11.8152 5.05742 11.8209 5.05237L11.8324 5.04209C11.833 5.04155 11.8337 5.04113 11.8344 5.04087C11.8352 5.0406 11.836 5.04049 11.8368 5.04054C11.8377 5.04059 11.8384 5.04081 11.8392 5.04117C11.8399 5.04153 11.8405 5.04203 11.8409 5.04263C11.8535 5.06176 11.8729 5.07114 11.8992 5.07078C11.9183 5.07042 11.9349 5.07583 11.9491 5.08702C12.4199 5.46524 12.7787 5.73519 13.0253 5.89687C13.3459 6.10692 13.7391 6.2861 14.2047 6.43443C14.921 6.66288 15.6741 6.80994 16.4641 6.87563C17.0447 6.92381 17.8142 6.93355 18.3256 6.6894C18.7999 6.46258 19.2093 6.19407 19.7881 6.13777C20.1245 6.10529 20.4132 6.20183 20.6541 6.42739C20.7665 6.53296 20.8114 6.70781 20.9481 6.82853C20.9518 6.8319 20.9567 6.83406 20.962 6.83465C20.9672 6.83525 20.9726 6.83425 20.9771 6.83181C20.9817 6.82938 20.9852 6.82565 20.9871 6.82122C20.989 6.8168 20.9892 6.81194 20.9876 6.80742L20.7799 6.16538Z" fill="#0C0100"/>
<path id="Vector_5" d="M9.81649 5.09473C10.8289 6.26295 12.2641 7.17675 13.8723 7.52971C14.8773 7.75021 15.8972 7.76916 16.9321 7.58655C17.0917 7.5584 17.2506 7.5279 17.4089 7.49506C17.9452 7.38408 18.4736 7.20598 19.0068 7.07552C19.183 7.03257 19.3306 7.02932 19.4496 7.06577C19.6885 7.13867 19.8727 7.25939 20.0023 7.42793C20.0699 7.51599 20.1563 7.69536 20.2616 7.96603C20.5908 8.81053 20.7098 9.68264 20.5538 10.5705C20.5205 10.7585 20.4631 10.9387 20.3813 11.1113C20.2914 11.0672 20.2183 11.0629 20.162 11.0983C20.1086 10.5778 20.0241 10.0782 19.9088 9.59927C19.7484 8.93197 19.3753 8.38088 18.7894 7.946C18.6807 7.86534 18.6011 7.81716 18.4523 7.84423C18.2369 7.88284 18.0359 7.94997 17.8492 8.04561L17.7083 8.02666C17.2297 8.12158 16.7491 8.18636 16.2665 8.221C15.1648 8.29968 14.0835 8.19845 13.0227 7.91731C12.4429 7.71448 11.9303 7.49073 11.4849 7.24604C11.0909 7.02986 10.7109 6.76478 10.3449 6.4508C10.325 6.43348 10.1896 6.2994 9.93857 6.04858C9.80495 5.91505 9.65636 5.79126 9.49278 5.67722C9.42799 5.59998 9.37515 5.49406 9.33426 5.35945C9.32859 5.34104 9.33507 5.32733 9.35369 5.3183L9.81649 5.09473Z" fill="#0C0100"/>
<path id="Vector_6" d="M9.49313 5.67773C9.65671 5.79178 9.80531 5.91557 9.93893 6.0491C10.19 6.29992 10.3254 6.434 10.3452 6.45132C10.7113 6.7653 11.0913 7.03038 11.4852 7.24656C11.9306 7.49125 12.4432 7.715 13.023 7.91783C12.6246 7.96041 12.2308 8.00029 11.8417 8.03747C11.7247 8.04901 11.6237 8.07879 11.5387 8.12679C10.9896 8.43752 10.5906 8.95884 10.57 9.54566C10.5538 9.99353 10.5661 10.5235 10.607 11.1356L10.7267 12.646C10.7264 12.6483 10.7252 12.6505 10.7234 12.6522C10.7215 12.6539 10.719 12.6549 10.7164 12.6552C10.7138 12.6554 10.7111 12.6549 10.7089 12.6536C10.7067 12.6523 10.705 12.6504 10.7042 12.6481C10.6216 12.208 10.3829 11.4166 9.94439 11.154C9.92698 11.1439 9.91038 11.1446 9.89459 11.1562C9.63282 11.3451 9.51075 11.7127 9.46034 12.0245C8.83842 10.1693 8.6471 7.86099 9.73668 6.0989C9.74721 6.0823 9.74539 6.06696 9.73121 6.05289C9.6312 5.95075 9.55184 5.8257 9.49313 5.67773ZM9.38989 10.3349H9.41114C9.41431 10.3349 9.41744 10.3344 9.42035 10.3333C9.42326 10.3322 9.4259 10.3306 9.42811 10.3286C9.43032 10.3265 9.43205 10.3242 9.4332 10.3215C9.43436 10.3189 9.43491 10.3161 9.43483 10.3133C9.41135 9.49946 9.42106 8.95487 9.46398 8.6795C9.54112 8.18688 9.61582 7.70887 9.85511 7.2536C9.97699 7.02262 10.1339 6.86004 10.3258 6.76584C10.3331 6.76223 10.338 6.75808 10.3404 6.75339C10.3432 6.74726 10.3438 6.74112 10.3422 6.73498C10.3386 6.72163 10.329 6.71586 10.3137 6.71766C9.91645 6.76368 9.68749 7.34508 9.55448 7.64012C9.45366 7.86369 9.39778 8.23073 9.38442 8.3953C9.34636 8.8724 9.33786 9.50993 9.35891 10.3079C9.35932 10.3259 9.36964 10.3349 9.38989 10.3349ZM10.2681 7.63633C9.8539 7.97196 9.76462 8.38934 9.78223 8.86897C9.80693 9.55829 9.85248 10.2498 9.91888 10.9434C9.9201 10.9546 9.92678 10.9602 9.93893 10.9602H9.96261C9.97314 10.9602 9.9782 10.9555 9.9778 10.9461C9.93812 10.2868 9.91119 9.63047 9.89702 8.97724C9.89135 8.71668 9.90431 8.52269 9.93589 8.3953C10.0853 7.79711 10.5718 7.43224 11.2326 7.30502C11.2382 7.30386 11.2431 7.30076 11.2462 7.2964C11.2492 7.29204 11.2502 7.28677 11.249 7.28174L11.2453 7.26442C11.2441 7.26009 11.2411 7.25811 11.2362 7.25847C10.8479 7.30214 10.5252 7.42809 10.2681 7.63633Z" fill="#331203"/>
<path id="Vector_7" d="M9.38988 10.3339C9.36964 10.3339 9.35931 10.3249 9.3589 10.3068C9.33785 9.5089 9.34635 8.87137 9.38441 8.39427C9.39777 8.2297 9.45365 7.86266 9.55447 7.63909C9.68748 7.34405 9.91645 6.76265 10.3137 6.71663C10.329 6.71483 10.3386 6.7206 10.3422 6.73395C10.3438 6.74009 10.3432 6.74622 10.3404 6.75236C10.3379 6.75705 10.3331 6.7612 10.3258 6.76481C10.1339 6.85901 9.97698 7.02159 9.85511 7.25256C9.61581 7.70784 9.54111 8.18585 9.46398 8.67847C9.42106 8.95384 9.41134 9.49843 9.43482 10.3123C9.4349 10.3151 9.43435 10.3179 9.4332 10.3205C9.43204 10.3231 9.43031 10.3255 9.4281 10.3275C9.4259 10.3296 9.42326 10.3312 9.42034 10.3323C9.41743 10.3333 9.4143 10.3339 9.41114 10.3339H9.38988Z" fill="#0C0100"/>
<path id="Vector_8" d="M10.268 7.63474C10.5251 7.4265 10.8478 7.30055 11.2361 7.25688C11.2409 7.25652 11.244 7.2585 11.2452 7.26283L11.2488 7.28016C11.2501 7.28518 11.2491 7.29045 11.246 7.29481C11.243 7.29917 11.2381 7.30227 11.2324 7.30343C10.5716 7.43065 10.0852 7.79552 9.93576 8.39371C9.90417 8.5211 9.89122 8.71509 9.89689 8.97565C9.91106 9.62888 9.93798 10.2852 9.97766 10.9445C9.97807 10.9539 9.97301 10.9586 9.96248 10.9586H9.93879C9.92665 10.9586 9.91996 10.953 9.91875 10.9418C9.85235 10.2482 9.8068 9.5567 9.7821 8.86738C9.76448 8.38775 9.85376 7.97037 10.268 7.63474Z" fill="#0C0100"/>
<path id="Vector_9" d="M20.1624 11.0985C20.0668 11.2129 19.9943 11.3183 19.945 11.4147C19.7749 11.7465 19.6899 12.1953 19.6188 12.5845C19.6176 12.591 19.6133 12.5939 19.6061 12.5932H19.6054C19.5978 12.5928 19.5941 12.5892 19.5945 12.5824C19.6358 11.1088 19.7834 8.71118 17.8496 8.04587C18.0363 7.95023 18.2373 7.8831 18.4527 7.84449C18.6015 7.81742 18.6811 7.8656 18.7898 7.94626C19.3757 8.38114 19.7488 8.93223 19.9091 9.59953C20.0245 10.0784 20.1089 10.5781 20.1624 11.0985Z" fill="#331203"/>
<path id="Vector_10" d="M13.0227 7.91602C14.0835 8.19716 15.1648 8.29839 16.2665 8.21971C16.7492 8.18507 17.2298 8.12028 17.7084 8.02537C16.1505 8.90127 14.0467 8.87799 12.2884 8.79516C11.5262 8.75943 11.2177 9.28183 11.0507 9.8378C10.9049 10.3239 10.7569 10.7559 10.6067 11.1338C10.5658 10.5217 10.5534 9.99172 10.5696 9.54385C10.5903 8.95703 10.9893 8.43571 11.5384 8.12498C11.6234 8.07698 11.7244 8.0472 11.8414 8.03565C12.2305 7.99848 12.6243 7.9586 13.0227 7.91602Z" fill="#F3A462"/>
<path id="Vector_11" d="M17.7086 8.02588L17.8495 8.04483C19.7833 8.71014 19.6357 11.1078 19.5944 12.5813C19.594 12.5882 19.5977 12.5918 19.6054 12.5921H19.606C19.6133 12.5929 19.6175 12.59 19.6187 12.5835C19.6898 12.1942 19.7748 11.7455 19.9449 11.4136C19.9943 11.3173 20.0667 11.2119 20.1623 11.0975C20.2186 11.0621 20.2917 11.0664 20.3815 11.1105C20.6135 11.2617 20.7733 11.51 20.8607 11.8554C20.8709 11.9557 20.8761 12.0741 20.8765 12.2105C20.8796 12.9218 20.6555 13.7771 20.0062 14.2346C19.8009 14.3791 19.5944 14.3948 19.3983 14.2411C19.3776 14.2248 19.365 14.2288 19.3606 14.253C19.2762 14.731 19.2003 15.3655 18.834 15.7417C18.3498 16.2387 17.8329 16.699 17.2835 17.1227C17.2373 17.1252 17.1928 17.1526 17.1499 17.205C17.1094 17.2548 17.0758 17.2899 17.049 17.3105C16.7178 17.5657 16.4852 17.7315 16.3512 17.808C15.8343 18.1031 14.8341 18.07 14.2498 17.9899C13.818 17.9309 13.4353 17.6781 13.1177 17.4253C13.1096 17.4188 13.1009 17.4148 13.0916 17.4134C13.0697 17.4098 13.0598 17.4123 13.0618 17.421C13.0493 17.4007 13.0365 17.3858 13.0236 17.376C12.3911 16.8986 11.7793 16.3698 11.1882 15.7899C10.9197 15.5273 10.8408 15.3454 10.7897 14.9443C10.7663 14.7606 10.7424 14.5769 10.7181 14.3932C10.7156 14.3748 10.7041 14.3647 10.6835 14.3629C10.1593 14.3082 9.76636 13.6624 9.64307 13.2807C9.50702 12.8625 9.44609 12.4433 9.46026 12.0232C9.51067 11.7114 9.63274 11.3438 9.89451 11.1549C9.9103 11.1433 9.9269 11.1426 9.94431 11.1527C10.3828 11.4153 10.6215 12.2067 10.7041 12.6468C10.7049 12.6491 10.7066 12.651 10.7088 12.6523C10.711 12.6536 10.7137 12.6541 10.7163 12.6539C10.719 12.6536 10.7214 12.6526 10.7233 12.6509C10.7252 12.6492 10.7263 12.647 10.7266 12.6447L10.6069 11.1343C10.7571 10.7564 10.9051 10.3244 11.0509 9.83831C11.2179 9.28234 11.5264 8.75995 12.2887 8.79567C14.0469 8.8785 16.1508 8.90178 17.7086 8.02588Z" fill="#FFB381"/>
<path id="Vector_12" d="M17.2832 17.1226L17.545 17.9449C17.5077 17.9636 17.4794 17.9539 17.46 17.9156C17.4552 17.9062 17.448 17.8979 17.439 17.8913C17.43 17.8847 17.4194 17.8801 17.4081 17.8777C17.3968 17.8754 17.385 17.8754 17.3737 17.8777C17.3623 17.8801 17.3518 17.8847 17.3428 17.8913C17.0233 18.1244 16.6884 18.3404 16.3382 18.5393C16.2548 18.5862 16.1649 18.6185 16.0685 18.6362C15.4474 18.7495 14.8263 18.7565 14.2052 18.6573C14.054 18.6329 13.8378 18.5523 13.7388 18.483C13.4837 18.3047 13.2122 18.1383 12.9243 17.9838L13.0616 17.4208C13.0596 17.4122 13.0695 17.4097 13.0913 17.4133C13.1006 17.4147 13.1094 17.4187 13.1175 17.4252C13.4351 17.678 13.8177 17.9308 14.2495 17.9898C14.8338 18.0699 15.8341 18.1029 16.351 17.8079C16.485 17.7314 16.7176 17.5656 17.0488 17.3104C17.0755 17.2898 17.1091 17.2546 17.1496 17.2048C17.1925 17.1525 17.2371 17.1251 17.2832 17.1226Z" fill="#F3A462"/>
<path id="Vector_13" d="M17.5453 17.9459C17.6343 18.1628 17.8091 18.53 18.0694 19.0475C18.1443 19.1958 18.2494 19.3124 18.3846 19.3972C17.7384 20.0714 16.9671 20.5162 16.0706 20.7316C15.6767 20.8265 15.2475 20.8543 14.7831 20.815C13.7548 20.7289 12.8128 20.1665 12.1156 19.5082C12.1014 19.4945 12.0988 19.4791 12.1077 19.4622L12.166 19.3523C12.3628 19.2256 12.5136 19.0369 12.6185 18.786C12.7371 18.5013 12.8391 18.2342 12.9246 17.9848C13.2125 18.1393 13.4839 18.3057 13.739 18.484C13.838 18.5533 14.0542 18.6339 14.2055 18.6583C14.8266 18.7575 15.4477 18.7505 16.0688 18.6372C16.1652 18.6195 16.2551 18.5872 16.3385 18.5403C16.6887 18.3414 17.0236 18.1254 17.343 17.8923C17.352 17.8857 17.3626 17.8811 17.3739 17.8787C17.3852 17.8764 17.397 17.8764 17.4084 17.8787C17.4197 17.8811 17.4303 17.8857 17.4392 17.8923C17.4482 17.8989 17.4554 17.9072 17.4602 17.9166C17.4797 17.9549 17.508 17.9646 17.5453 17.9459Z" fill="#FFB381"/>
<path id="Vector_14" d="M12.166 19.3506L12.1077 19.4605C12.0988 19.4774 12.1014 19.4928 12.1156 19.5065C12.8128 20.1648 13.7548 20.7272 14.7831 20.8133C15.2475 20.8526 15.6767 20.8249 16.0706 20.7299C16.9671 20.5145 17.7384 20.0697 18.3846 19.3955L18.726 19.5265C18.6826 19.5348 18.6539 19.5604 18.6397 19.6034C18.634 19.6207 18.6231 19.6348 18.6069 19.6456C18.5037 19.7165 18.3725 19.8048 18.3269 19.9152C18.3188 19.934 18.3261 19.9453 18.3488 19.9493C19.5287 20.146 20.7073 20.3476 21.8848 20.554C22.3597 20.6374 22.7346 20.7428 23.0096 20.8701C23.1715 20.9452 23.2819 21.0141 23.3406 21.0769C24.333 22.1374 25.0527 23.3506 25.7092 24.5941C25.9319 25.0167 26.1421 25.4443 26.3396 25.8771C19.8714 31.1536 10.1102 31.1427 3.63403 25.9783C3.66481 25.9628 3.68161 25.9231 3.68444 25.8592C3.68647 25.8123 3.69558 25.7726 3.71177 25.7401C3.78627 25.5856 3.91058 25.3108 4.08468 24.9156C4.59121 23.7664 5.28298 22.5093 6.20857 21.5284C6.47702 21.2437 6.73635 21.0401 7.15664 20.9692C9.14205 20.6341 10.4897 20.3721 11.8915 20.0105C11.9632 19.9917 12.0261 19.9722 12.0804 19.952C12.0862 19.9499 12.0913 19.9465 12.0951 19.942C12.0989 19.9376 12.1013 19.9323 12.1021 19.9267C12.1029 19.9211 12.102 19.9154 12.0996 19.9102C12.0972 19.9049 12.0933 19.9003 12.0883 19.8968C11.9065 19.7734 11.7895 19.6389 11.7372 19.4935L12.166 19.3506Z" fill="#0175A2"/>
<path id="Vector_15" d="M11.7371 19.4943C11.7894 19.6397 11.9064 19.7741 12.0882 19.8976C12.0932 19.9011 12.0971 19.9057 12.0995 19.9109C12.1019 19.9162 12.1028 19.9219 12.102 19.9275C12.1012 19.9331 12.0988 19.9383 12.095 19.9428C12.0911 19.9472 12.0861 19.9507 12.0803 19.9528C12.026 19.973 11.9631 19.9925 11.8914 20.0112C10.4896 20.3729 9.14193 20.6349 7.15652 20.97C6.73624 21.0409 6.4769 21.2444 6.20846 21.5292C5.28286 22.5101 4.59109 23.7671 4.08457 24.9164C3.91046 25.3116 3.78616 25.5864 3.71166 25.7409C3.69546 25.7733 3.68635 25.813 3.68433 25.86C3.68149 25.9238 3.66469 25.9635 3.63392 25.9791L3.02961 25.4707C3.01612 25.4594 3.00668 25.4447 3.00247 25.4285C2.99825 25.4123 2.99946 25.3954 3.00592 25.3798C3.53006 24.1168 4.1447 22.8771 4.98223 21.749C5.32112 21.2932 5.81125 20.7247 6.36637 20.6268C8.17383 20.3074 9.98918 20.0096 11.7371 19.4943Z" fill="#21A14B"/>
<path id="Vector_16" d="M18.7257 19.5278C19.8044 19.7187 20.8826 19.9057 21.9604 20.0887C22.5757 20.1931 23.3361 20.3095 23.9301 20.5905C23.9896 20.6186 24.0827 20.6988 24.2094 20.8309C24.8332 21.481 25.3348 22.2324 25.7818 22.987C26.2216 23.7301 26.6252 24.4824 26.9929 25.2439C26.9999 25.2584 27.0017 25.2744 26.9983 25.2899C26.9948 25.3054 26.9861 25.3195 26.9735 25.3305L26.3394 25.8784C26.1418 25.4457 25.9317 25.018 25.709 24.5954C25.0524 23.3519 24.3327 22.1387 23.3403 21.0782C23.2816 21.0155 23.1713 20.9465 23.0093 20.8715C22.7344 20.7441 22.3595 20.6387 21.8845 20.5553C20.7071 20.3489 19.5284 20.1473 18.3485 19.9506C18.3259 19.9467 18.3186 19.9353 18.3267 19.9165C18.3722 19.8061 18.5034 19.7178 18.6067 19.6469C18.6229 19.6361 18.6338 19.622 18.6395 19.6047C18.6536 19.5618 18.6824 19.5361 18.7257 19.5278Z" fill="#21A14B"/>
</g>
</g>
</svg>
