<svg width="24" height="24" viewBox="0 0 24 24" fill="none" xmlns="http://www.w3.org/2000/svg">
<g id="stamp_svgrepo.com">
<g id="Group">
<g id="Group_2">
<path id="Vector" d="M19.9453 16.4187H14.6496L16.0391 4.53895C16.1738 3.38709 15.8089 2.22961 15.038 1.36327C14.267 0.496922 13.1597 0 12 0C10.8402 0 9.73291 0.496922 8.962 1.36327C8.19105 2.22961 7.82617 3.38709 7.96089 4.539L9.35036 16.4187H4.0547C2.74539 16.4187 1.6803 17.4839 1.6803 18.7931V21.9856C1.6803 22.2496 1.89438 22.4637 2.15838 22.4637H2.88044V23.5219C2.88044 23.7859 3.09452 24 3.35852 24H20.6414C20.9054 24 21.1195 23.7859 21.1195 23.5219V22.4637H21.8416C22.1056 22.4637 22.3196 22.2496 22.3196 21.9856V18.7931C22.3197 17.4839 21.2545 16.4187 19.9453 16.4187ZM8.91063 4.42791C8.80759 3.54684 9.08669 2.66152 9.67633 1.99884C10.266 1.33622 11.1129 0.956156 12 0.956156C12.887 0.956156 13.734 1.33617 14.3237 1.99889C14.9133 2.66152 15.1924 3.54689 15.0894 4.42791L13.687 16.4188H10.3131L8.91063 4.42791ZM20.1633 23.0438H3.83664V22.4637H20.1633L20.1633 23.0438ZM21.3636 21.5076H2.63645V21.0235H8.49545C8.75945 21.0235 8.97353 20.8094 8.97353 20.5454C8.97353 20.2814 8.75945 20.0673 8.49545 20.0673H2.63645V18.7931C2.63645 18.0111 3.27269 17.3749 4.0547 17.3749H19.9453C20.7273 17.3749 21.3636 18.0111 21.3636 18.7931V21.5076Z" fill="#475467"/>
</g>
</g>
<g id="Group_3">
<g id="Group_4">
<path id="Vector_2" d="M10.1277 20.0673H10.0317C9.76767 20.0673 9.55359 20.2814 9.55359 20.5454C9.55359 20.8094 9.76767 21.0234 10.0317 21.0234H10.1277C10.3917 21.0234 10.6058 20.8094 10.6058 20.5454C10.6058 20.2814 10.3917 20.0673 10.1277 20.0673Z" fill="#475467"/>
</g>
</g>
</g>
</svg>
